<svg xmlns="http://www.w3.org/2000/svg" xmlns:xlink="http://www.w3.org/1999/xlink" width="1322" zoomAndPan="magnify" viewBox="0 0 991.5 476.249999" height="635" preserveAspectRatio="xMidYMid meet" version="1.0"><defs><g/></defs><g fill="#ffffff" fill-opacity="1"><g transform="translate(149.158802, 304.865876)"><g><path d="M 60.78125 -125.46875 L 60.78125 0 L 14.703125 0 L 14.703125 -202.171875 L 60.78125 -202.171875 L 141.15625 -76.703125 L 141.640625 -76.703125 L 141.640625 -202.171875 L 187.71875 -202.171875 L 187.71875 0 L 141.640625 0 L 61.265625 -125.46875 Z M 60.78125 -125.46875 "/></g></g></g><g fill="#ffffff" fill-opacity="1"><g transform="translate(396.186207, 304.865876)"><g><path d="M 130.375 -202.171875 L 130.375 -161.734375 L 60.78125 -161.734375 L 60.78125 -121.546875 L 127.4375 -121.546875 L 127.4375 -81.109375 L 60.78125 -81.109375 L 60.78125 -40.4375 L 130.375 -40.4375 L 130.375 0 L 14.703125 0 L 14.703125 -202.171875 Z M 130.375 -202.171875 "/></g></g></g><g fill="#ffffff" fill-opacity="1"><g transform="translate(582.927373, 304.865876)"><g><path d="M 60.78125 -202.171875 L 60.78125 -40.4375 L 130.375 -40.4375 L 130.375 0 L 14.703125 0 L 14.703125 -202.171875 Z M 60.78125 -202.171875 "/></g></g></g><g fill="#ffffff" fill-opacity="1"><g transform="translate(765.992556, 304.865876)"><g><path d="M 60.78125 -202.171875 L 60.78125 0 L 14.703125 0 L 14.703125 -202.171875 Z M 60.78125 -202.171875 "/></g></g></g></svg>